<svg width="204" height="33" viewBox="0 0 204 33" fill="none" xmlns="http://www.w3.org/2000/svg">
<path d="M61.7926 26.1124C60.1308 26.1124 58.8498 25.8124 57.9497 25.2123C57.0727 24.6122 56.4149 23.9429 55.9763 23.2043H55.4224V25.6277H51.9258V1.39355H55.4917V10.8795H56.0456C56.3226 10.4179 56.6918 9.97937 57.1534 9.56393C57.615 9.12541 58.2267 8.76767 58.9883 8.4907C59.75 8.21374 60.6847 8.07526 61.7926 8.07526C63.2235 8.07526 64.5391 8.42146 65.7393 9.11387C66.9394 9.80627 67.8973 10.8103 68.6127 12.1258C69.3282 13.4414 69.686 15.0108 69.686 16.8342V17.3535C69.686 19.1999 69.3167 20.7809 68.5781 22.0965C67.8626 23.3889 66.9048 24.3814 65.7046 25.0738C64.5275 25.7662 63.2235 26.1124 61.7926 26.1124ZM60.7539 22.9966C62.3003 22.9966 63.5697 22.5004 64.5622 21.5079C65.5777 20.5155 66.0855 19.096 66.0855 17.2496V16.938C66.0855 15.1147 65.5892 13.7068 64.5968 12.7144C63.6043 11.7219 62.3234 11.2257 60.7539 11.2257C59.2307 11.2257 57.9612 11.7219 56.9457 12.7144C55.9533 13.7068 55.457 15.1147 55.457 16.938V17.2496C55.457 19.096 55.9533 20.5155 56.9457 21.5079C57.9612 22.5004 59.2307 22.9966 60.7539 22.9966Z" fill="white"/>
<path d="M74.1044 25.6277V8.55994H77.6703V25.6277H74.1044ZM75.9046 6.24039C75.2122 6.24039 74.6237 6.02113 74.139 5.5826C73.6774 5.121 73.4466 4.53246 73.4466 3.81697C73.4466 3.10149 73.6774 2.52448 74.139 2.08596C74.6237 1.62436 75.2122 1.39355 75.9046 1.39355C76.6201 1.39355 77.2087 1.62436 77.6703 2.08596C78.1319 2.52448 78.3627 3.10149 78.3627 3.81697C78.3627 4.53246 78.1319 5.121 77.6703 5.5826C77.2087 6.02113 76.6201 6.24039 75.9046 6.24039Z" fill="white"/>
<path d="M89.367 25.6277C88.3284 25.6277 87.4975 25.3161 86.8744 24.693C86.2743 24.0698 85.9742 23.2389 85.9742 22.2003V11.5719H81.2659V8.55994H85.9742V2.91685H89.5401V8.55994H94.6293V11.5719H89.5401V21.5772C89.5401 22.2696 89.8633 22.6158 90.5095 22.6158H94.0754V25.6277H89.367Z" fill="white"/>
<path d="M114.636 26.1124C112.466 26.1124 110.666 25.6277 109.235 24.6584C107.804 23.689 106.927 22.2234 106.604 20.2616L109.928 19.4653C110.112 20.4116 110.424 21.1617 110.862 21.7156C111.301 22.2696 111.843 22.6619 112.49 22.8927C113.159 23.1235 113.874 23.2389 114.636 23.2389C115.767 23.2389 116.632 23.0197 117.233 22.5811C117.856 22.1426 118.167 21.5772 118.167 20.8847C118.167 20.1923 117.879 19.6846 117.302 19.3615C116.725 19.0383 115.871 18.7729 114.74 18.5652L113.563 18.3575C112.409 18.1497 111.359 17.8497 110.412 17.4573C109.466 17.065 108.716 16.5226 108.162 15.8302C107.608 15.1378 107.331 14.2492 107.331 13.1644C107.331 11.5488 107.931 10.3025 109.131 9.42545C110.332 8.52532 111.924 8.07526 113.909 8.07526C115.825 8.07526 117.394 8.51378 118.617 9.39083C119.864 10.2448 120.671 11.4103 121.041 12.8875L117.717 13.8222C117.509 12.7836 117.071 12.0566 116.402 11.6411C115.732 11.2026 114.901 10.9834 113.909 10.9834C112.94 10.9834 112.178 11.168 111.624 11.5373C111.07 11.8835 110.793 12.3797 110.793 13.026C110.793 13.7184 111.059 14.2261 111.589 14.5492C112.143 14.8724 112.882 15.1147 113.805 15.2763L115.017 15.484C116.24 15.6917 117.359 15.9802 118.375 16.3495C119.391 16.7188 120.187 17.2496 120.764 17.942C121.364 18.6344 121.664 19.5576 121.664 20.7116C121.664 22.4196 121.029 23.7467 119.76 24.693C118.49 25.6393 116.782 26.1124 114.636 26.1124Z" fill="white"/>
<path d="M125.832 32.5518V8.55994H129.329V11.018H129.882C130.321 10.2563 130.979 9.57547 131.856 8.97539C132.756 8.3753 134.037 8.07526 135.699 8.07526C137.13 8.07526 138.434 8.42146 139.611 9.11387C140.811 9.80627 141.769 10.8103 142.484 12.1258C143.223 13.4183 143.592 14.9878 143.592 16.8342V17.3535C143.592 19.1999 143.234 20.7809 142.519 22.0965C141.803 23.3889 140.846 24.3814 139.645 25.0738C138.445 25.7662 137.13 26.1124 135.699 26.1124C134.591 26.1124 133.656 25.9739 132.894 25.697C132.133 25.42 131.521 25.0738 131.06 24.6584C130.598 24.2198 130.229 23.7698 129.952 23.3082H129.398V32.5518H125.832ZM134.66 22.9966C136.229 22.9966 137.51 22.5004 138.503 21.5079C139.495 20.5155 139.992 19.096 139.992 17.2496V16.938C139.992 15.1147 139.484 13.7068 138.468 12.7144C137.476 11.7219 136.206 11.2257 134.66 11.2257C133.137 11.2257 131.867 11.7219 130.852 12.7144C129.859 13.7068 129.363 15.1147 129.363 16.938V17.2496C129.363 19.096 129.859 20.5155 130.852 21.5079C131.867 22.5004 133.137 22.9966 134.66 22.9966Z" fill="white"/>
<path d="M153.307 26.1124C152.084 26.1124 150.988 25.9047 150.018 25.4892C149.072 25.0738 148.311 24.4622 147.734 23.6544C147.18 22.8466 146.903 21.8657 146.903 20.7116C146.903 19.5346 147.18 18.5652 147.734 17.8035C148.311 17.0188 149.084 16.4303 150.053 16.0379C151.046 15.6456 152.165 15.4494 153.411 15.4494H158.604V14.3415C158.604 13.3491 158.304 12.5528 157.704 11.9527C157.104 11.3526 156.181 11.0526 154.935 11.0526C153.711 11.0526 152.777 11.3411 152.13 11.9181C151.484 12.4951 151.057 13.2452 150.849 14.1684L147.526 13.0952C147.803 12.172 148.241 11.3411 148.841 10.6025C149.465 9.84089 150.284 9.22927 151.299 8.76767C152.315 8.30606 153.538 8.07526 154.969 8.07526C157.185 8.07526 158.927 8.64072 160.197 9.77165C161.466 10.9026 162.101 12.5066 162.101 14.5839V21.6118C162.101 22.3042 162.424 22.6504 163.07 22.6504H164.524V25.6277H161.859C161.051 25.6277 160.393 25.42 159.885 25.0046C159.377 24.5891 159.124 24.0236 159.124 23.3082V23.2043H158.604C158.42 23.5505 158.143 23.9544 157.773 24.416C157.404 24.8776 156.862 25.2815 156.146 25.6277C155.431 25.9508 154.484 26.1124 153.307 26.1124ZM153.827 23.1697C155.258 23.1697 156.412 22.7658 157.289 21.958C158.166 21.1271 158.604 19.9962 158.604 18.5652V18.219H153.619C152.673 18.219 151.911 18.4267 151.334 18.8422C150.757 19.2345 150.469 19.8231 150.469 20.6078C150.469 21.3925 150.769 22.0157 151.369 22.4773C151.969 22.9389 152.788 23.1697 153.827 23.1697Z" fill="white"/>
<path d="M175.514 26.1124C173.875 26.1124 172.386 25.7662 171.048 25.0738C169.732 24.3814 168.682 23.3774 167.897 22.0618C167.136 20.7463 166.755 19.1653 166.755 17.3189V16.8688C166.755 15.0224 167.136 13.4529 167.897 12.1604C168.682 10.8449 169.732 9.84089 171.048 9.14849C172.386 8.433 173.875 8.07526 175.514 8.07526C177.153 8.07526 178.549 8.3753 179.703 8.97539C180.857 9.57547 181.78 10.3717 182.472 11.3642C183.188 12.3566 183.65 13.4529 183.857 14.6531L180.395 15.3801C180.28 14.6185 180.038 13.9261 179.668 13.3029C179.299 12.6798 178.78 12.1835 178.11 11.8142C177.441 11.445 176.599 11.2603 175.583 11.2603C174.591 11.2603 173.69 11.4911 172.883 11.9527C172.098 12.3912 171.475 13.0375 171.013 13.8915C170.552 14.7223 170.321 15.7379 170.321 16.938V17.2496C170.321 18.4498 170.552 19.4769 171.013 20.3308C171.475 21.1848 172.098 21.831 172.883 22.2696C173.69 22.7081 174.591 22.9273 175.583 22.9273C177.083 22.9273 178.226 22.5465 179.01 21.7849C179.795 21.0001 180.291 20.0077 180.499 18.8075L183.961 19.6038C183.684 20.7809 183.188 21.8657 182.472 22.8581C181.78 23.8505 180.857 24.6468 179.703 25.2469C178.549 25.8239 177.153 26.1124 175.514 26.1124Z" fill="white"/>
<path d="M195.898 26.1124C194.167 26.1124 192.655 25.7547 191.363 25.0392C190.07 24.3006 189.055 23.2735 188.316 21.958C187.601 20.6193 187.243 19.073 187.243 17.3189V16.9034C187.243 15.1262 187.601 13.5799 188.316 12.2643C189.032 10.9257 190.024 9.89859 191.294 9.18311C192.586 8.44454 194.075 8.07526 195.76 8.07526C197.398 8.07526 198.829 8.44454 200.053 9.18311C201.299 9.89859 202.268 10.9026 202.961 12.1951C203.653 13.4876 203.999 14.9993 203.999 16.7303V18.0805H190.878C190.924 19.5807 191.421 20.7809 192.367 21.681C193.336 22.5581 194.536 22.9966 195.967 22.9966C197.306 22.9966 198.31 22.6965 198.979 22.0965C199.672 21.4964 200.203 20.804 200.572 20.0192L203.515 21.5425C203.191 22.1888 202.718 22.8696 202.095 23.5851C201.495 24.3006 200.699 24.9007 199.706 25.3854C198.714 25.8701 197.444 26.1124 195.898 26.1124ZM190.913 15.3455H200.364C200.272 14.053 199.81 13.049 198.979 12.3336C198.148 11.595 197.064 11.2257 195.725 11.2257C194.386 11.2257 193.29 11.595 192.436 12.3336C191.605 13.049 191.097 14.053 190.913 15.3455Z" fill="white"/>
<path d="M0.826172 13.6379H12.8252V25.6276H0.826172V13.6379Z" fill="white"/>
<path d="M14.0251 13.6379H26.0242V25.6276H14.0251V13.6379Z" fill="white"/>
<path d="M0.826172 0.449219H12.8252V12.4389H0.826172V0.449219Z" fill="white"/>
<path d="M14.0251 0.449219H26.0242V12.4389H14.0251V0.449219Z" fill="white"/>
<path d="M27.2241 13.6379H39.2232V25.6276H27.2241V13.6379Z" fill="white"/>
</svg>
